<svg id="svg" version="1.1" xmlns="http://www.w3.org/2000/svg" viewBox="0 0 200 200" style="display: block;"><path d="M0 0 C66 0 132 0 200 0 C200 66 200 132 200 200 C134 200 68 200 0 200 C0 134 0 68 0 0 Z " transform="translate(0,0)" style="fill: #FCFE00;"/><path d="M0 0 C5.61 0 11.22 0 17 0 C17.33 19.8 17.66 39.6 18 60 C19.876875 55.648125 21.75375 51.29625 23.6875 46.8125 C28.47701943 35.74177475 33.32527455 24.69875703 38.25 13.6875 C38.67543594 12.73322617 38.67543594 12.73322617 39.10946655 11.75967407 C39.90899153 9.96755907 40.71221412 8.17709506 41.515625 6.38671875 C42.20060059 4.85857544 42.20060059 4.85857544 42.89941406 3.29956055 C44 1 44 1 45 0 C50.28 0 55.56 0 61 0 C61.66 19.8 62.32 39.6 63 60 C65.289375 54.34875 67.57875 48.6975 69.9375 42.875 C71.65284817 38.64473758 73.36872109 34.41468982 75.08509827 30.18484497 C76.5836013 26.49179418 78.08190492 22.79866637 79.57763672 19.10449219 C80.8410357 15.98535088 82.10741286 12.86744102 83.375 9.75 C83.737146 8.85394043 84.09929199 7.95788086 84.47241211 7.03466797 C86.88535472 1.11464528 86.88535472 1.11464528 88 0 C89.34267413 -0.08631874 90.68974322 -0.10706473 92.03515625 -0.09765625 C92.84404297 -0.09443359 93.65292969 -0.09121094 94.48632812 -0.08789062 C95.33646484 -0.07951172 96.18660156 -0.07113281 97.0625 -0.0625 C97.91650391 -0.05798828 98.77050781 -0.05347656 99.65039062 -0.04882812 C101.76695663 -0.03700373 103.88348685 -0.01906769 106 0 C100.07308804 13.68550777 94.1027287 27.35187915 88.11199951 41.009552 C87.34201893 42.76516616 86.57235432 44.52091893 85.80303955 46.27682495 C80.2777492 58.88602602 74.66454313 71.45267205 69 84 C62.4 84 55.8 84 49 84 C48.15166238 79.75831188 47.82241676 76.14854094 47.71875 71.85546875 C47.70034058 71.16802078 47.68193115 70.48057281 47.66296387 69.77229309 C47.60456723 67.57744427 47.55177263 65.3825143 47.5 63.1875 C47.23140453 52.10354375 46.76844635 41.06133762 46 30 C45.74637695 30.69770508 45.49275391 31.39541016 45.23144531 32.11425781 C41.56357245 41.93769714 37.30999858 51.46636985 32.98730469 61.015625 C31.73441423 63.78444369 30.48794675 66.55609153 29.2421875 69.328125 C28.44828792 71.08870912 27.6540307 72.84913203 26.859375 74.609375 C26.48649353 75.43838318 26.11361206 76.26739136 25.72943115 77.121521 C23.11562659 82.88437341 23.11562659 82.88437341 22 84 C20.58429877 84.08651611 19.164405 84.10704904 17.74609375 84.09765625 C16.89208984 84.09443359 16.03808594 84.09121094 15.15820312 84.08789062 C14.26037109 84.07951172 13.36253906 84.07113281 12.4375 84.0625 C11.53580078 84.05798828 10.63410156 84.05347656 9.70507812 84.04882812 C7.46998686 84.03700225 5.23502563 84.0205222 3 84 C1.76756965 80.12775235 1.78572345 76.22564735 1.70288086 72.20214844 C1.68322769 71.42127869 1.66357452 70.64040894 1.64332581 69.83587646 C1.57956628 67.26045957 1.52217601 64.68494233 1.46484375 62.109375 C1.42182488 60.32146268 1.37840827 58.5335599 1.33460999 56.7456665 C1.22050152 52.04399236 1.11179629 47.3422082 1.00421143 42.64038086 C0.89343714 37.84090503 0.77755927 33.04155273 0.66210938 28.2421875 C0.43640787 18.82823718 0.21688552 9.41415756 0 0 Z " transform="translate(47,58)" style="fill: #040400;"/></svg>